# xmcd CD database file
#
# Track frame offsets:
#	150
#	41844
#	57038
#	79904
#	106938
#	142316
#	162390
#	190855
#	241296
#	283917
#	314167
#	340017
#	348343
#
# Disc length: 4708 seconds
#
# Revision: 0
# Processed by: cddbd v1.5.1PL0 Copyright (c) Steve Scherf et al.
# Submitted via: CDex 1.51
#
DISCID=c812620d
DTITLE=Soft Machine - Out-Bloody-Rageous - An Anthology 1967-1973 CD2
DYEAR=2005
DGENRE=Jazz
TTITLE0=Teeth
TTITLE1=Virtually (Part Four)
TTITLE2=Kings and Queens
TTITLE3=All White
TTITLE4=Drop
TTITLE5=Pigling Bland
TTITLE6=Gesolreut (Live)
TTITLE7=The Soft Weed Factor
TTITLE8=Chloe And The Pirates
TTITLE9=Penny Hitch
TTITLE10=Down The Road
TTITLE11=The German Leson
TTITLE12=The French Lesson
EXTD=YEAR: 2005
EXTT0=
EXTT1=
EXTT2=
EXTT3=
EXTT4=
EXTT5=
EXTT6=
EXTT7=
EXTT8=
EXTT9=
EXTT10=
EXTT11=
EXTT12=
PLAYORDER=
